<mxfile host="app.diagrams.net" modified="2022-08-25T05:46:31.006Z" agent="5.0 (Macintosh; Intel Mac OS X 10_15_7) AppleWebKit/537.36 (KHTML, like Gecko) Chrome/104.0.0.0 Safari/537.36" etag="uKt3XnkhANsTP6Erg4sA" version="20.2.7" type="github" pages="2">
  <diagram id="XwgRGIicNyqhrtsjOUds" name="第 1 页">
    <mxGraphModel grid="1" page="1" gridSize="10" guides="1" tooltips="1" connect="1" arrows="1" fold="1" pageScale="1" pageWidth="827" pageHeight="1169" math="0" shadow="0">
      <root>
        <mxCell id="0" />
        <mxCell id="1" parent="0" />
        <mxCell id="ZJW29T7Bj-m1sILbZo8B-29" value="门户配置" style="strokeWidth=1;shadow=0;dashed=0;align=center;html=1;shape=mxgraph.mockup.containers.window;align=left;verticalAlign=top;spacingLeft=8;strokeColor2=#008cff;strokeColor3=#c4c4c4;fontColor=#666666;mainText=;fontSize=17;labelBackgroundColor=none;" parent="1" vertex="1">
          <mxGeometry x="100" y="110" width="1730" height="770" as="geometry" />
        </mxCell>
        <mxCell id="ZJW29T7Bj-m1sILbZo8B-30" value="" style="strokeWidth=1;shadow=0;dashed=0;align=center;html=1;shape=mxgraph.mockup.containers.marginRect2;rectMarginTop=32;strokeColor=#666666;gradientColor=none;" parent="1" vertex="1">
          <mxGeometry x="115" y="153" width="1693.47" height="713" as="geometry" />
        </mxCell>
        <mxCell id="ZJW29T7Bj-m1sILbZo8B-31" value="&lt;font style=&quot;font-size: 11px;&quot;&gt;首页轮播图&lt;/font&gt;" style="strokeColor=#008cff;fillColor=#008cff;gradientColor=inherit;strokeWidth=1;shadow=0;dashed=0;align=center;html=1;shape=mxgraph.mockup.containers.rrect;rSize=0;fontSize=17;fontColor=#ffffff;gradientColor=none;" parent="ZJW29T7Bj-m1sILbZo8B-30" vertex="1">
          <mxGeometry width="60" height="25" relative="1" as="geometry">
            <mxPoint x="10" as="offset" />
          </mxGeometry>
        </mxCell>
        <mxCell id="ZJW29T7Bj-m1sILbZo8B-32" value="&lt;font style=&quot;font-size: 12px;&quot;&gt;Banner&lt;/font&gt;" style="strokeWidth=1;shadow=0;dashed=0;align=center;html=1;shape=mxgraph.mockup.containers.rrect;rSize=0;fontSize=17;fontColor=#666666;strokeColor=inherit;fillColor=inherit;gradientColor=none;" parent="ZJW29T7Bj-m1sILbZo8B-30" vertex="1">
          <mxGeometry width="60" height="25" relative="1" as="geometry">
            <mxPoint x="75" as="offset" />
          </mxGeometry>
        </mxCell>
        <mxCell id="ZJW29T7Bj-m1sILbZo8B-33" value="&lt;font style=&quot;font-size: 12px;&quot;&gt;联系信息&lt;/font&gt;" style="strokeColor=inherit;fillColor=inherit;gradientColor=inherit;strokeWidth=1;shadow=0;dashed=0;align=center;html=1;shape=mxgraph.mockup.containers.rrect;rSize=0;fontSize=17;fontColor=#666666;gradientColor=none;" parent="ZJW29T7Bj-m1sILbZo8B-30" vertex="1">
          <mxGeometry width="60" height="25" relative="1" as="geometry">
            <mxPoint x="140" as="offset" />
          </mxGeometry>
        </mxCell>
        <mxCell id="ZJW29T7Bj-m1sILbZo8B-34" value="" style="strokeWidth=1;shadow=0;dashed=0;align=center;html=1;shape=mxgraph.mockup.containers.topButton;rSize=5;strokeColor=#008cff;fillColor=#008cff;gradientColor=none;resizeWidth=1;movable=0;deletable=1;" parent="ZJW29T7Bj-m1sILbZo8B-30" vertex="1">
          <mxGeometry width="1690" height="7" relative="1" as="geometry">
            <mxPoint y="25" as="offset" />
          </mxGeometry>
        </mxCell>
        <mxCell id="ZJW29T7Bj-m1sILbZo8B-35" value="&lt;b&gt;&lt;font style=&quot;font-size: 20px&quot;&gt;轮播图1&lt;/font&gt;&lt;/b&gt;&lt;br&gt;&lt;br&gt;跳转地址：https://www.baidu.com&lt;br&gt;&lt;font color=&quot;#999999&quot;&gt;&lt;span style=&quot;font-size: 12px;&quot;&gt;顺序号：1&lt;/span&gt;&lt;/font&gt;" style="html=1;shadow=0;dashed=0;shape=mxgraph.bootstrap.rrect;rSize=5;strokeColor=#DFDFDF;html=1;whiteSpace=wrap;fillColor=#ffffff;fontColor=#000000;verticalAlign=bottom;align=left;spacing=20;fontSize=14;" parent="ZJW29T7Bj-m1sILbZo8B-30" vertex="1">
          <mxGeometry x="13" y="47" width="407.47" height="283" as="geometry" />
        </mxCell>
        <mxCell id="ZJW29T7Bj-m1sILbZo8B-36" value="&lt;span style=&quot;&quot;&gt;Image cap&lt;/span&gt;" style="html=1;shadow=0;dashed=0;shape=mxgraph.bootstrap.topButton;rSize=5;perimeter=none;whiteSpace=wrap;fillColor=#868E96;strokeColor=#DFDFDF;fontColor=#DEE2E6;resizeWidth=1;fontSize=18;" parent="ZJW29T7Bj-m1sILbZo8B-35" vertex="1">
          <mxGeometry width="407.47" height="180" relative="1" as="geometry" />
        </mxCell>
        <mxCell id="ZJW29T7Bj-m1sILbZo8B-47" value="&lt;b&gt;&lt;font style=&quot;font-size: 20px&quot;&gt;轮播图2&lt;/font&gt;&lt;/b&gt;&lt;br&gt;&lt;br&gt;跳转地址：https://www.baidu.com&lt;br&gt;&lt;font color=&quot;#999999&quot;&gt;&lt;span style=&quot;font-size: 12px;&quot;&gt;顺序号：2&lt;/span&gt;&lt;/font&gt;" style="html=1;shadow=0;dashed=0;shape=mxgraph.bootstrap.rrect;rSize=5;strokeColor=#DFDFDF;html=1;whiteSpace=wrap;fillColor=#ffffff;fontColor=#000000;verticalAlign=bottom;align=left;spacing=20;fontSize=14;" parent="ZJW29T7Bj-m1sILbZo8B-30" vertex="1">
          <mxGeometry x="434" y="47" width="407.47" height="283" as="geometry" />
        </mxCell>
        <mxCell id="ZJW29T7Bj-m1sILbZo8B-48" value="&lt;span style=&quot;&quot;&gt;Image cap&lt;/span&gt;" style="html=1;shadow=0;dashed=0;shape=mxgraph.bootstrap.topButton;rSize=5;perimeter=none;whiteSpace=wrap;fillColor=#868E96;strokeColor=#DFDFDF;fontColor=#DEE2E6;resizeWidth=1;fontSize=18;" parent="ZJW29T7Bj-m1sILbZo8B-47" vertex="1">
          <mxGeometry width="407.47" height="180" relative="1" as="geometry" />
        </mxCell>
        <mxCell id="ZJW29T7Bj-m1sILbZo8B-51" value="&lt;b&gt;&lt;font style=&quot;font-size: 20px&quot;&gt;轮播图3&lt;/font&gt;&lt;/b&gt;&lt;br&gt;&lt;br&gt;跳转地址：https://www.baidu.com&lt;br&gt;&lt;font color=&quot;#999999&quot;&gt;&lt;span style=&quot;font-size: 12px;&quot;&gt;顺序号：3&lt;/span&gt;&lt;/font&gt;" style="html=1;shadow=0;dashed=0;shape=mxgraph.bootstrap.rrect;rSize=5;strokeColor=#DFDFDF;html=1;whiteSpace=wrap;fillColor=#ffffff;fontColor=#000000;verticalAlign=bottom;align=left;spacing=20;fontSize=14;" parent="ZJW29T7Bj-m1sILbZo8B-30" vertex="1">
          <mxGeometry x="856" y="47" width="407.47" height="283" as="geometry" />
        </mxCell>
        <mxCell id="ZJW29T7Bj-m1sILbZo8B-52" value="&lt;span style=&quot;&quot;&gt;Image cap&lt;/span&gt;" style="html=1;shadow=0;dashed=0;shape=mxgraph.bootstrap.topButton;rSize=5;perimeter=none;whiteSpace=wrap;fillColor=#868E96;strokeColor=#DFDFDF;fontColor=#DEE2E6;resizeWidth=1;fontSize=18;" parent="ZJW29T7Bj-m1sILbZo8B-51" vertex="1">
          <mxGeometry width="407.47" height="180" relative="1" as="geometry" />
        </mxCell>
        <mxCell id="ZJW29T7Bj-m1sILbZo8B-53" value="&lt;b&gt;&lt;font style=&quot;font-size: 20px&quot;&gt;轮播图4&lt;/font&gt;&lt;/b&gt;&lt;br&gt;&lt;br&gt;跳转地址：https://www.baidu.com&lt;br&gt;&lt;font color=&quot;#999999&quot;&gt;&lt;span style=&quot;font-size: 12px;&quot;&gt;顺序号：4&lt;/span&gt;&lt;/font&gt;" style="html=1;shadow=0;dashed=0;shape=mxgraph.bootstrap.rrect;rSize=5;strokeColor=#DFDFDF;html=1;whiteSpace=wrap;fillColor=#ffffff;fontColor=#000000;verticalAlign=bottom;align=left;spacing=20;fontSize=14;" parent="ZJW29T7Bj-m1sILbZo8B-30" vertex="1">
          <mxGeometry x="1277" y="47" width="407.47" height="283" as="geometry" />
        </mxCell>
        <mxCell id="ZJW29T7Bj-m1sILbZo8B-54" value="&lt;span style=&quot;&quot;&gt;Image cap&lt;/span&gt;" style="html=1;shadow=0;dashed=0;shape=mxgraph.bootstrap.topButton;rSize=5;perimeter=none;whiteSpace=wrap;fillColor=#868E96;strokeColor=#DFDFDF;fontColor=#DEE2E6;resizeWidth=1;fontSize=18;" parent="ZJW29T7Bj-m1sILbZo8B-53" vertex="1">
          <mxGeometry width="407.47" height="180" relative="1" as="geometry" />
        </mxCell>
        <mxCell id="4gDjFx9e_xOKD78NoV15-2" value="" style="rounded=1;whiteSpace=wrap;html=1;" vertex="1" parent="1">
          <mxGeometry x="140" y="40" width="120" height="60" as="geometry" />
        </mxCell>
        <mxCell id="4gDjFx9e_xOKD78NoV15-3" value="" style="rounded=1;whiteSpace=wrap;html=1;" vertex="1" parent="1">
          <mxGeometry x="500" y="30" width="120" height="60" as="geometry" />
        </mxCell>
      </root>
    </mxGraphModel>
  </diagram>
  <diagram id="_Wupb2PUBl11LdEiN74Y" name="第 2 页">
    <mxGraphModel dx="1426" dy="711" grid="1" gridSize="10" guides="1" tooltips="1" connect="1" arrows="1" fold="1" page="1" pageScale="1" pageWidth="827" pageHeight="1169" math="0" shadow="0">
      <root>
        <mxCell id="0" />
        <mxCell id="1" parent="0" />
        <mxCell id="FPwBZH_EQQDLLIIm1YNK-1" value="Pool" style="swimlane;childLayout=stackLayout;resizeParent=1;resizeParentMax=0;startSize=20;horizontal=0;horizontalStack=1;" vertex="1" parent="1">
          <mxGeometry x="130" y="90" width="605" height="480" as="geometry" />
        </mxCell>
        <mxCell id="FPwBZH_EQQDLLIIm1YNK-2" value="Lane 1" style="swimlane;startSize=20;" vertex="1" parent="FPwBZH_EQQDLLIIm1YNK-1">
          <mxGeometry x="20" width="285" height="480" as="geometry">
            <mxRectangle x="20" width="40" height="480" as="alternateBounds" />
          </mxGeometry>
        </mxCell>
        <mxCell id="FPwBZH_EQQDLLIIm1YNK-10" value="" style="edgeStyle=orthogonalEdgeStyle;rounded=0;orthogonalLoop=1;jettySize=auto;html=1;" edge="1" parent="FPwBZH_EQQDLLIIm1YNK-2" source="FPwBZH_EQQDLLIIm1YNK-8" target="FPwBZH_EQQDLLIIm1YNK-9">
          <mxGeometry relative="1" as="geometry" />
        </mxCell>
        <mxCell id="FPwBZH_EQQDLLIIm1YNK-8" value="" style="strokeWidth=2;html=1;shape=mxgraph.flowchart.start_2;whiteSpace=wrap;" vertex="1" parent="FPwBZH_EQQDLLIIm1YNK-2">
          <mxGeometry x="30" y="50" width="30" height="30" as="geometry" />
        </mxCell>
        <mxCell id="FPwBZH_EQQDLLIIm1YNK-12" value="" style="edgeStyle=orthogonalEdgeStyle;rounded=0;orthogonalLoop=1;jettySize=auto;html=1;" edge="1" parent="FPwBZH_EQQDLLIIm1YNK-2" source="FPwBZH_EQQDLLIIm1YNK-9" target="FPwBZH_EQQDLLIIm1YNK-11">
          <mxGeometry relative="1" as="geometry" />
        </mxCell>
        <mxCell id="FPwBZH_EQQDLLIIm1YNK-9" value="1" style="whiteSpace=wrap;html=1;strokeWidth=2;" vertex="1" parent="FPwBZH_EQQDLLIIm1YNK-2">
          <mxGeometry x="-15" y="145" width="120" height="60" as="geometry" />
        </mxCell>
        <mxCell id="FPwBZH_EQQDLLIIm1YNK-11" value="" style="rhombus;whiteSpace=wrap;html=1;strokeWidth=2;" vertex="1" parent="FPwBZH_EQQDLLIIm1YNK-2">
          <mxGeometry x="205" y="135" width="80" height="80" as="geometry" />
        </mxCell>
        <mxCell id="FPwBZH_EQQDLLIIm1YNK-3" value="Lane 2" style="swimlane;startSize=20;" vertex="1" parent="FPwBZH_EQQDLLIIm1YNK-1">
          <mxGeometry x="305" width="180" height="480" as="geometry" />
        </mxCell>
        <mxCell id="FPwBZH_EQQDLLIIm1YNK-13" value="2" style="whiteSpace=wrap;html=1;strokeWidth=2;" vertex="1" parent="FPwBZH_EQQDLLIIm1YNK-3">
          <mxGeometry x="60" y="145" width="120" height="60" as="geometry" />
        </mxCell>
        <mxCell id="FPwBZH_EQQDLLIIm1YNK-4" value="Lane 3" style="swimlane;startSize=20;" vertex="1" parent="FPwBZH_EQQDLLIIm1YNK-1">
          <mxGeometry x="485" width="120" height="480" as="geometry" />
        </mxCell>
        <mxCell id="FPwBZH_EQQDLLIIm1YNK-14" value="" style="edgeStyle=orthogonalEdgeStyle;rounded=0;orthogonalLoop=1;jettySize=auto;html=1;" edge="1" parent="FPwBZH_EQQDLLIIm1YNK-1" source="FPwBZH_EQQDLLIIm1YNK-11" target="FPwBZH_EQQDLLIIm1YNK-13">
          <mxGeometry relative="1" as="geometry" />
        </mxCell>
        <mxCell id="FPwBZH_EQQDLLIIm1YNK-17" value="是" style="edgeLabel;html=1;align=center;verticalAlign=middle;resizable=0;points=[];" vertex="1" connectable="0" parent="FPwBZH_EQQDLLIIm1YNK-14">
          <mxGeometry x="0.2333" y="-4" relative="1" as="geometry">
            <mxPoint as="offset" />
          </mxGeometry>
        </mxCell>
        <mxCell id="FPwBZH_EQQDLLIIm1YNK-15" value="3" style="whiteSpace=wrap;html=1;strokeWidth=2;" vertex="1" parent="1">
          <mxGeometry x="335" y="395" width="120" height="60" as="geometry" />
        </mxCell>
        <mxCell id="FPwBZH_EQQDLLIIm1YNK-16" value="" style="edgeStyle=orthogonalEdgeStyle;rounded=0;orthogonalLoop=1;jettySize=auto;html=1;" edge="1" parent="1" source="FPwBZH_EQQDLLIIm1YNK-11" target="FPwBZH_EQQDLLIIm1YNK-15">
          <mxGeometry relative="1" as="geometry" />
        </mxCell>
        <mxCell id="FPwBZH_EQQDLLIIm1YNK-18" value="否" style="edgeLabel;html=1;align=center;verticalAlign=middle;resizable=0;points=[];" vertex="1" connectable="0" parent="FPwBZH_EQQDLLIIm1YNK-16">
          <mxGeometry x="-0.3111" relative="1" as="geometry">
            <mxPoint y="4" as="offset" />
          </mxGeometry>
        </mxCell>
      </root>
    </mxGraphModel>
  </diagram>
</mxfile>
